<svg xmlns="http://www.w3.org/2000/svg" width="176" height="40" fill="none"><mask id="a" width="24" height="24" x="0" y="8" maskUnits="userSpaceOnUse" style="mask-type:alpha"><circle cx="12" cy="20" r="12" fill="#C4C4C4"/></mask><g fill="#0A112F" mask="url(#a)"><circle cx="6.292" cy="5.869" r="9.956" transform="rotate(-22 6.292 5.869)"/><circle cx="17.711" cy="34.131" r="9.956" transform="rotate(-22 17.711 34.13)"/><circle cx="-2.129" cy="25.709" r="9.956" transform="rotate(-22 -2.129 25.71)"/><circle cx="25.871" cy="13.643" r="9.956" transform="rotate(-22 25.87 13.643)"/></g><path fill="#0A112F" d="M41.24 28.288q-2.544 0-4.368-1.08a7.4 7.4 0 0 1-2.808-3.048q-.984-1.968-.984-4.536t.984-4.536 2.808-3.072 4.368-1.104q3.024 0 4.944 1.512 1.944 1.488 2.424 4.2h-3.384q-.312-1.368-1.344-2.136-1.008-.792-2.688-.792-2.328 0-3.648 1.584t-1.32 4.344 1.32 4.344q1.32 1.56 3.648 1.56 1.68 0 2.688-.72 1.032-.744 1.344-2.04h3.384q-.48 2.592-2.424 4.056-1.92 1.464-4.944 1.464m14 0q-2.233 0-3.457-1.392-1.2-1.392-1.2-4.08v-6.72h3.048v6.432q0 1.536.624 2.352t1.968.816q1.272 0 2.088-.912.84-.912.84-2.544v-6.144h3.072V28h-2.712l-.24-2.016a4.16 4.16 0 0 1-1.608 1.68q-1.032.624-2.424.624M64.896 28V16.096h2.736l.288 2.232a4.9 4.9 0 0 1 1.752-1.824q1.128-.696 2.64-.696v3.24h-.864q-1.008 0-1.8.312a2.48 2.48 0 0 0-1.248 1.08q-.432.768-.432 2.136V28zm9.035 0V16.096h2.736l.288 2.232a4.9 4.9 0 0 1 1.752-1.824q1.129-.696 2.64-.696v3.24h-.864q-1.007 0-1.8.312a2.48 2.48 0 0 0-1.248 1.08q-.432.768-.432 2.136V28zm14.61.288q-1.8 0-3.193-.768a5.56 5.56 0 0 1-2.184-2.16q-.792-1.392-.792-3.216 0-1.848.768-3.288a5.7 5.7 0 0 1 2.16-2.232q1.392-.816 3.264-.816 1.752 0 3.096.768a5.4 5.4 0 0 1 2.088 2.112q.768 1.32.768 2.952 0 .264-.024.552 0 .288-.024.6H85.42q.096 1.392.96 2.184.888.792 2.136.792.936 0 1.56-.408.648-.432.96-1.104h3.12a5.7 5.7 0 0 1-1.128 2.064 5.4 5.4 0 0 1-1.92 1.44q-1.128.528-2.568.528m.023-9.984a3.23 3.23 0 0 0-1.992.648q-.864.624-1.104 1.92h5.928q-.072-1.176-.864-1.872t-1.968-.696M96.621 28V16.096h2.712l.24 2.016a4.2 4.2 0 0 1 1.584-1.68q1.056-.624 2.472-.624 2.208 0 3.432 1.392t1.224 4.08V28h-3.072v-6.432q0-1.536-.624-2.352t-1.944-.816q-1.296 0-2.136.912-.816.912-.816 2.544V28zm19.954.288q-1.824 0-3.216-.792a5.85 5.85 0 0 1-2.208-2.208q-.792-1.416-.792-3.24t.792-3.24a5.85 5.85 0 0 1 2.208-2.208q1.392-.792 3.216-.792 2.28 0 3.84 1.2 1.56 1.176 1.992 3.264h-3.24a2.3 2.3 0 0 0-.96-1.344q-.696-.504-1.656-.504-1.272 0-2.16.96t-.888 2.664.888 2.664 2.16.96q.96 0 1.656-.48.72-.48.96-1.368h3.24q-.432 2.016-1.992 3.24t-3.84 1.224m9.566 4.992 2.76-6.072h-.72l-4.632-11.112h3.336l3.336 8.376 3.48-8.376h3.264l-7.56 17.184z"/><path fill="#355FE5" d="M138.493 33.28V16.096h2.736l.336 1.704q.576-.792 1.512-1.392.96-.6 2.472-.6 1.68 0 3 .816a5.85 5.85 0 0 1 2.088 2.232q.768 1.416.768 3.216t-.768 3.216a5.9 5.9 0 0 1-2.088 2.208q-1.32.792-3 .792-1.344 0-2.352-.504a4.24 4.24 0 0 1-1.632-1.416v6.912zm6.408-7.68q1.464 0 2.424-.984t.96-2.544-.96-2.568-2.424-1.008q-1.488 0-2.448 1.008-.936.984-.936 2.544t.936 2.568q.96.984 2.448.984m8.769 2.4V16.096h2.736l.288 2.232a4.9 4.9 0 0 1 1.752-1.824q1.128-.696 2.64-.696v3.24h-.864q-1.008 0-1.8.312a2.48 2.48 0 0 0-1.248 1.08q-.432.768-.432 2.136V28zm14.536.288q-1.728 0-3.12-.792a5.96 5.96 0 0 1-2.184-2.184q-.792-1.416-.792-3.264t.816-3.24a5.9 5.9 0 0 1 2.184-2.208q1.392-.792 3.12-.792 1.704 0 3.072.792a5.7 5.7 0 0 1 2.184 2.208q.816 1.392.816 3.24t-.816 3.264a5.73 5.73 0 0 1-2.184 2.184q-1.392.792-3.096.792m0-2.664q1.2 0 2.088-.888.888-.912.888-2.688t-.888-2.664q-.888-.912-2.064-.912-1.224 0-2.112.912-.864.888-.864 2.664t.864 2.688q.888.888 2.088.888"/></svg>